<svg width="899" height="186" viewBox="0 0 899 186" fill="none" xmlns="http://www.w3.org/2000/svg">
<rect width="283" height="186" rx="5" fill="#1A1D23"/>
<path d="M106.074 70.852H113.13V73.768H106.074V81.004H103.122V73.768H96.0659V70.852H103.122V63.58H106.074V70.852ZM116.397 81.112H124.641V62.248L125.955 61.402L125.883 60.754L116.361 62.968V58.72L125.595 56.416H129.483V81.112H137.583V85H116.397V81.112ZM140.406 81.454C140.406 79.102 141.192 77.14 142.764 75.568C144.348 73.996 146.856 72.592 150.288 71.356C153.456 70.216 155.574 69.202 156.642 68.314C157.722 67.414 158.262 66.166 158.262 64.57C158.262 63.07 157.722 61.972 156.642 61.276C155.574 60.568 154.044 60.214 152.052 60.214C149.916 60.214 148.236 60.682 147.012 61.618C145.788 62.554 145.176 64.096 145.176 66.244H140.316C140.316 62.98 141.336 60.526 143.376 58.882C145.416 57.238 148.326 56.416 152.106 56.416C155.862 56.416 158.64 57.154 160.44 58.63C162.24 60.094 163.14 62.014 163.14 64.39C163.14 67.066 162.276 69.142 160.548 70.618C158.832 72.094 156.594 73.372 153.834 74.452C150.918 75.616 148.8 76.69 147.48 77.674C146.16 78.658 145.5 79.81 145.5 81.13H163.104V85H140.406V81.454ZM165.968 81.112H174.212V62.248L175.526 61.402L175.454 60.754L165.932 62.968V58.72L175.166 56.416H179.054V81.112H187.154V85H165.968V81.112Z" fill="white"/>
<path d="M76.0102 123.82C76.0102 122.367 75.7602 121.353 75.2602 120.78C74.7668 120.207 73.8068 119.92 72.3802 119.92C70.9135 119.92 69.8168 120.283 69.0902 121.01C68.6102 121.483 68.2902 122.07 68.1302 122.77V130H65.4302V118.23H68.1302V119.72C68.1302 119.78 68.1202 119.83 68.1002 119.87L67.6902 120.55C67.8902 120.29 68.1235 120.027 68.3902 119.76C69.4635 118.66 71.0502 118.11 73.1502 118.11C73.2168 118.11 73.2802 118.11 73.3402 118.11C75.3202 118.143 76.7068 118.617 77.5002 119.53C78.3002 120.443 78.7002 121.823 78.7002 123.67V130H76.0102V123.82ZM95.0617 125.9C94.9151 126.98 94.5417 127.83 93.9417 128.45C93.3484 129.063 92.6317 129.497 91.7917 129.75C90.9451 129.997 89.6384 130.12 87.8717 130.12C84.9917 130.12 83.0384 129.647 82.0117 128.7C80.9851 127.747 80.4717 126.22 80.4717 124.12C80.4717 122.02 80.9951 120.497 82.0417 119.55C83.0951 118.603 85.0117 118.13 87.7917 118.13C90.6051 118.13 92.5217 118.613 93.5417 119.58C94.5617 120.54 95.0717 121.993 95.0717 123.94L95.0517 124.63H83.0517C83.1251 126.017 83.4651 126.983 84.0717 127.53C84.7717 128.157 86.0384 128.47 87.8717 128.47C88.9917 128.47 89.7951 128.393 90.2817 128.24C90.7684 128.08 91.2017 127.813 91.5817 127.44C91.9684 127.06 92.2384 126.547 92.3917 125.9H95.0617ZM92.4017 123.21C92.3817 122.017 92.0351 121.147 91.3617 120.6C90.6884 120.047 89.5017 119.77 87.8017 119.77C86.0551 119.77 84.8217 120.073 84.1017 120.68C83.5084 121.187 83.1617 122.03 83.0617 123.21H92.4017ZM103.365 130H99.7348L96.1748 118.24H98.9448L101.495 127.55C101.515 127.617 101.532 127.69 101.545 127.77C101.558 127.85 101.572 127.923 101.585 127.99L101.595 128.59H101.745L101.755 127.99C101.768 127.923 101.782 127.85 101.795 127.77C101.815 127.69 101.838 127.617 101.865 127.55L105.105 118.24H107.705L110.985 127.56C111.012 127.627 111.032 127.7 111.045 127.78C111.065 127.853 111.082 127.927 111.095 128L111.105 128.57H111.255V128C111.268 127.927 111.282 127.853 111.295 127.78C111.315 127.7 111.332 127.627 111.345 127.56L113.835 118.24H116.565L113.055 130H109.455L106.635 121.75C106.608 121.683 106.585 121.613 106.565 121.54C106.552 121.46 106.538 121.387 106.525 121.32L106.455 120.42H106.305L106.235 121.31C106.222 121.377 106.205 121.45 106.185 121.53C106.172 121.61 106.152 121.683 106.125 121.75L103.365 130ZM133.086 130.1C130.706 130.1 128.873 129.627 127.586 128.68C126.306 127.733 125.666 126.193 125.666 124.06C125.666 121.94 126.306 120.42 127.586 119.5C128.873 118.573 130.706 118.11 133.086 118.11C135.473 118.11 137.306 118.573 138.586 119.5C139.866 120.42 140.506 121.94 140.506 124.06C140.506 126.193 139.866 127.733 138.586 128.68C137.306 129.627 135.473 130.1 133.086 130.1ZM133.096 128.33C134.716 128.33 135.906 128.03 136.666 127.43C137.426 126.823 137.806 125.707 137.806 124.08C137.806 122.467 137.426 121.363 136.666 120.77C135.906 120.177 134.716 119.88 133.096 119.88C131.469 119.88 130.273 120.177 129.506 120.77C128.739 121.363 128.356 122.467 128.356 124.08C128.356 125.707 128.739 126.823 129.506 127.43C130.273 128.03 131.469 128.33 133.096 128.33ZM152.62 122.79C152.62 121.763 152.393 121.033 151.94 120.6C151.493 120.167 150.583 119.95 149.21 119.95C147.803 119.95 146.783 120.273 146.15 120.92C145.617 121.46 145.307 122.127 145.22 122.92V130H142.52V118.11H145.22V119.54C145.22 119.6 145.21 119.65 145.19 119.69L144.69 120.41L144.76 120.61C144.993 120.223 145.3 119.85 145.68 119.49C146.647 118.59 148.13 118.14 150.13 118.14C152.07 118.14 153.42 118.49 154.18 119.19C154.94 119.883 155.32 121.083 155.32 122.79H152.62ZM168.513 114.12H171.203V130H168.513V128.68C168.513 128.64 168.526 128.593 168.553 128.54L169.173 127.77L169.143 127.76C168.876 128.127 168.466 128.513 167.913 128.92C166.853 129.7 165.283 130.09 163.203 130.09C163.163 130.09 163.126 130.09 163.093 130.09C160.986 130.077 159.443 129.593 158.463 128.64C157.483 127.68 156.993 126.163 156.993 124.09C156.993 122.03 157.483 120.527 158.463 119.58C159.443 118.627 160.986 118.14 163.093 118.12C163.126 118.12 163.159 118.12 163.193 118.12C165.279 118.12 166.853 118.513 167.913 119.3C168.466 119.7 168.876 120.087 169.143 120.46L169.183 120.44L168.553 119.66C168.526 119.627 168.513 119.58 168.513 119.52V114.12ZM159.733 124.11C159.733 125.703 160.046 126.797 160.673 127.39C161.299 127.983 162.403 128.28 163.983 128.28C165.516 128.28 166.656 127.987 167.403 127.4C168.096 126.847 168.466 126.157 168.513 125.33V122.9C168.466 122.06 168.096 121.367 167.403 120.82C166.656 120.227 165.516 119.93 163.983 119.93C162.403 119.93 161.299 120.233 160.673 120.84C160.046 121.44 159.733 122.53 159.733 124.11ZM187.132 125.9C186.985 126.98 186.612 127.83 186.012 128.45C185.419 129.063 184.702 129.497 183.862 129.75C183.015 129.997 181.709 130.12 179.942 130.12C177.062 130.12 175.109 129.647 174.082 128.7C173.055 127.747 172.542 126.22 172.542 124.12C172.542 122.02 173.065 120.497 174.112 119.55C175.165 118.603 177.082 118.13 179.862 118.13C182.675 118.13 184.592 118.613 185.612 119.58C186.632 120.54 187.142 121.993 187.142 123.94L187.122 124.63H175.122C175.195 126.017 175.535 126.983 176.142 127.53C176.842 128.157 178.109 128.47 179.942 128.47C181.062 128.47 181.865 128.393 182.352 128.24C182.839 128.08 183.272 127.813 183.652 127.44C184.039 127.06 184.309 126.547 184.462 125.9H187.132ZM184.472 123.21C184.452 122.017 184.105 121.147 183.432 120.6C182.759 120.047 181.572 119.77 179.872 119.77C178.125 119.77 176.892 120.073 176.172 120.68C175.579 121.187 175.232 122.03 175.132 123.21H184.472ZM199.319 122.79C199.319 121.763 199.093 121.033 198.639 120.6C198.193 120.167 197.283 119.95 195.909 119.95C194.503 119.95 193.483 120.273 192.849 120.92C192.316 121.46 192.006 122.127 191.919 122.92V130H189.219V118.11H191.919V119.54C191.919 119.6 191.909 119.65 191.889 119.69L191.389 120.41L191.459 120.61C191.693 120.223 191.999 119.85 192.379 119.49C193.346 118.59 194.829 118.14 196.829 118.14C198.769 118.14 200.119 118.49 200.879 119.19C201.639 119.883 202.019 121.083 202.019 122.79H199.319ZM210.882 130.1C208.435 130.1 206.652 129.827 205.532 129.28C204.412 128.733 203.852 127.7 203.852 126.18H206.382C206.382 127.093 206.805 127.697 207.652 127.99C208.505 128.283 209.632 128.43 211.032 128.43C212.325 128.43 213.315 128.317 214.002 128.09C214.695 127.857 215.042 127.397 215.042 126.71C215.042 125.843 214.579 125.347 213.652 125.22C212.732 125.087 211.559 124.987 210.132 124.92C208.465 124.84 207.012 124.593 205.772 124.18C204.532 123.767 203.912 122.85 203.912 121.43C203.912 120.217 204.459 119.367 205.552 118.88C206.645 118.387 208.275 118.14 210.442 118.14C212.969 118.14 214.785 118.41 215.892 118.95C216.999 119.483 217.552 120.457 217.552 121.87H215.032C215.032 121.01 214.612 120.45 213.772 120.19C212.932 119.93 211.785 119.8 210.332 119.8C209.045 119.8 208.079 119.903 207.432 120.11C206.792 120.317 206.472 120.783 206.472 121.51C206.472 122.297 206.959 122.773 207.932 122.94C208.905 123.107 210.092 123.23 211.492 123.31C213.172 123.397 214.605 123.61 215.792 123.95C216.985 124.283 217.582 125.167 217.582 126.6C217.582 127.9 217.079 128.81 216.072 129.33C215.065 129.843 213.335 130.1 210.882 130.1Z" fill="white"/>
<rect x="308" width="283" height="186" rx="5" fill="#1A1D23"/>
<path d="M413.441 70.852H420.497V73.768H413.441V81.004H410.489V73.768H403.433V70.852H410.489V63.58H413.441V70.852ZM423.765 81.112H432.009V62.248L433.323 61.402L433.251 60.754L423.729 62.968V58.72L432.963 56.416H436.851V81.112H444.951V85H423.765V81.112ZM447.773 81.454C447.773 79.102 448.559 77.14 450.131 75.568C451.715 73.996 454.223 72.592 457.655 71.356C460.823 70.216 462.941 69.202 464.009 68.314C465.089 67.414 465.629 66.166 465.629 64.57C465.629 63.07 465.089 61.972 464.009 61.276C462.941 60.568 461.411 60.214 459.419 60.214C457.283 60.214 455.603 60.682 454.379 61.618C453.155 62.554 452.543 64.096 452.543 66.244H447.683C447.683 62.98 448.703 60.526 450.743 58.882C452.783 57.238 455.693 56.416 459.473 56.416C463.229 56.416 466.007 57.154 467.807 58.63C469.607 60.094 470.507 62.014 470.507 64.39C470.507 67.066 469.643 69.142 467.915 70.618C466.199 72.094 463.961 73.372 461.201 74.452C458.285 75.616 456.167 76.69 454.847 77.674C453.527 78.658 452.867 79.81 452.867 81.13H470.471V85H447.773V81.454ZM473.191 81.454C473.191 79.102 473.977 77.14 475.549 75.568C477.133 73.996 479.641 72.592 483.073 71.356C486.241 70.216 488.359 69.202 489.427 68.314C490.507 67.414 491.047 66.166 491.047 64.57C491.047 63.07 490.507 61.972 489.427 61.276C488.359 60.568 486.829 60.214 484.837 60.214C482.701 60.214 481.021 60.682 479.797 61.618C478.573 62.554 477.961 64.096 477.961 66.244H473.101C473.101 62.98 474.121 60.526 476.161 58.882C478.201 57.238 481.111 56.416 484.891 56.416C488.647 56.416 491.425 57.154 493.225 58.63C495.025 60.094 495.925 62.014 495.925 64.39C495.925 67.066 495.061 69.142 493.333 70.618C491.617 72.094 489.379 73.372 486.619 74.452C483.703 75.616 481.585 76.69 480.265 77.674C478.945 78.658 478.285 79.81 478.285 81.13H495.889V85H473.191V81.454Z" fill="white"/>
<path d="M391.92 123.82C391.92 122.367 391.67 121.353 391.17 120.78C390.677 120.207 389.717 119.92 388.29 119.92C386.824 119.92 385.727 120.283 385 121.01C384.52 121.483 384.2 122.07 384.04 122.77V130H381.34V118.23H384.04V119.72C384.04 119.78 384.03 119.83 384.01 119.87L383.6 120.55C383.8 120.29 384.034 120.027 384.3 119.76C385.374 118.66 386.96 118.11 389.06 118.11C389.127 118.11 389.19 118.11 389.25 118.11C391.23 118.143 392.617 118.617 393.41 119.53C394.21 120.443 394.61 121.823 394.61 123.67V130H391.92V123.82ZM410.972 125.9C410.825 126.98 410.452 127.83 409.852 128.45C409.259 129.063 408.542 129.497 407.702 129.75C406.855 129.997 405.549 130.12 403.782 130.12C400.902 130.12 398.949 129.647 397.922 128.7C396.895 127.747 396.382 126.22 396.382 124.12C396.382 122.02 396.905 120.497 397.952 119.55C399.005 118.603 400.922 118.13 403.702 118.13C406.515 118.13 408.432 118.613 409.452 119.58C410.472 120.54 410.982 121.993 410.982 123.94L410.962 124.63H398.962C399.035 126.017 399.375 126.983 399.982 127.53C400.682 128.157 401.949 128.47 403.782 128.47C404.902 128.47 405.705 128.393 406.192 128.24C406.679 128.08 407.112 127.813 407.492 127.44C407.879 127.06 408.149 126.547 408.302 125.9H410.972ZM408.312 123.21C408.292 122.017 407.945 121.147 407.272 120.6C406.599 120.047 405.412 119.77 403.712 119.77C401.965 119.77 400.732 120.073 400.012 120.68C399.419 121.187 399.072 122.03 398.972 123.21H408.312ZM419.275 130H415.645L412.085 118.24H414.855L417.405 127.55C417.425 127.617 417.442 127.69 417.455 127.77C417.468 127.85 417.482 127.923 417.495 127.99L417.505 128.59H417.655L417.665 127.99C417.678 127.923 417.692 127.85 417.705 127.77C417.725 127.69 417.748 127.617 417.775 127.55L421.015 118.24H423.615L426.895 127.56C426.922 127.627 426.942 127.7 426.955 127.78C426.975 127.853 426.992 127.927 427.005 128L427.015 128.57H427.165V128C427.178 127.927 427.192 127.853 427.205 127.78C427.225 127.7 427.242 127.627 427.255 127.56L429.745 118.24H432.475L428.965 130H425.365L422.545 121.75C422.518 121.683 422.495 121.613 422.475 121.54C422.462 121.46 422.448 121.387 422.435 121.32L422.365 120.42H422.215L422.145 121.31C422.132 121.377 422.115 121.45 422.095 121.53C422.082 121.61 422.062 121.683 422.035 121.75L419.275 130ZM444.506 124.41C444.506 125.857 444.743 126.867 445.216 127.44C445.69 128.013 446.65 128.3 448.096 128.3C449.61 128.3 450.723 127.95 451.436 127.25C452.05 126.657 452.4 125.87 452.486 124.89V118.24H455.186V130H452.546V128.5C452.546 128.46 452.56 128.413 452.586 128.36L453.136 127.41L453.116 127.4C452.896 127.747 452.62 128.1 452.286 128.46C451.266 129.56 449.573 130.11 447.206 130.11C445.16 130.11 443.75 129.65 442.976 128.73C442.203 127.81 441.816 126.427 441.816 124.58V118.22H444.506V124.41ZM464.214 130.1C461.767 130.1 459.984 129.827 458.864 129.28C457.744 128.733 457.184 127.7 457.184 126.18H459.714C459.714 127.093 460.137 127.697 460.984 127.99C461.837 128.283 462.964 128.43 464.364 128.43C465.657 128.43 466.647 128.317 467.334 128.09C468.027 127.857 468.374 127.397 468.374 126.71C468.374 125.843 467.911 125.347 466.984 125.22C466.064 125.087 464.891 124.987 463.464 124.92C461.797 124.84 460.344 124.593 459.104 124.18C457.864 123.767 457.244 122.85 457.244 121.43C457.244 120.217 457.791 119.367 458.884 118.88C459.977 118.387 461.607 118.14 463.774 118.14C466.301 118.14 468.117 118.41 469.224 118.95C470.331 119.483 470.884 120.457 470.884 121.87H468.364C468.364 121.01 467.944 120.45 467.104 120.19C466.264 119.93 465.117 119.8 463.664 119.8C462.377 119.8 461.411 119.903 460.764 120.11C460.124 120.317 459.804 120.783 459.804 121.51C459.804 122.297 460.291 122.773 461.264 122.94C462.237 123.107 463.424 123.23 464.824 123.31C466.504 123.397 467.937 123.61 469.124 123.95C470.317 124.283 470.914 125.167 470.914 126.6C470.914 127.9 470.411 128.81 469.404 129.33C468.397 129.843 466.667 130.1 464.214 130.1ZM487.222 125.9C487.075 126.98 486.702 127.83 486.102 128.45C485.509 129.063 484.792 129.497 483.952 129.75C483.105 129.997 481.799 130.12 480.032 130.12C477.152 130.12 475.199 129.647 474.172 128.7C473.145 127.747 472.632 126.22 472.632 124.12C472.632 122.02 473.155 120.497 474.202 119.55C475.255 118.603 477.172 118.13 479.952 118.13C482.765 118.13 484.682 118.613 485.702 119.58C486.722 120.54 487.232 121.993 487.232 123.94L487.212 124.63H475.212C475.285 126.017 475.625 126.983 476.232 127.53C476.932 128.157 478.199 128.47 480.032 128.47C481.152 128.47 481.955 128.393 482.442 128.24C482.929 128.08 483.362 127.813 483.742 127.44C484.129 127.06 484.399 126.547 484.552 125.9H487.222ZM484.562 123.21C484.542 122.017 484.195 121.147 483.522 120.6C482.849 120.047 481.662 119.77 479.962 119.77C478.215 119.77 476.982 120.073 476.262 120.68C475.669 121.187 475.322 122.03 475.222 123.21H484.562ZM499.409 122.79C499.409 121.763 499.182 121.033 498.729 120.6C498.282 120.167 497.372 119.95 495.999 119.95C494.592 119.95 493.572 120.273 492.939 120.92C492.406 121.46 492.096 122.127 492.009 122.92V130H489.309V118.11H492.009V119.54C492.009 119.6 491.999 119.65 491.979 119.69L491.479 120.41L491.549 120.61C491.782 120.223 492.089 119.85 492.469 119.49C493.436 118.59 494.919 118.14 496.919 118.14C498.859 118.14 500.209 118.49 500.969 119.19C501.729 119.883 502.109 121.083 502.109 122.79H499.409ZM510.972 130.1C508.525 130.1 506.742 129.827 505.622 129.28C504.502 128.733 503.942 127.7 503.942 126.18H506.472C506.472 127.093 506.895 127.697 507.742 127.99C508.595 128.283 509.722 128.43 511.122 128.43C512.415 128.43 513.405 128.317 514.092 128.09C514.785 127.857 515.132 127.397 515.132 126.71C515.132 125.843 514.669 125.347 513.742 125.22C512.822 125.087 511.649 124.987 510.222 124.92C508.555 124.84 507.102 124.593 505.862 124.18C504.622 123.767 504.002 122.85 504.002 121.43C504.002 120.217 504.549 119.367 505.642 118.88C506.735 118.387 508.365 118.14 510.532 118.14C513.059 118.14 514.875 118.41 515.982 118.95C517.089 119.483 517.642 120.457 517.642 121.87H515.122C515.122 121.01 514.702 120.45 513.862 120.19C513.022 119.93 511.875 119.8 510.422 119.8C509.135 119.8 508.169 119.903 507.522 120.11C506.882 120.317 506.562 120.783 506.562 121.51C506.562 122.297 507.049 122.773 508.022 122.94C508.995 123.107 510.182 123.23 511.582 123.31C513.262 123.397 514.695 123.61 515.882 123.95C517.075 124.283 517.672 125.167 517.672 126.6C517.672 127.9 517.169 128.81 516.162 129.33C515.155 129.843 513.425 130.1 510.972 130.1Z" fill="white"/>
<rect x="616" width="283" height="186" rx="5" fill="#1A1D23"/>
<path d="M690.31 70.852H697.366V73.768H690.31V81.004H687.358V73.768H680.302V70.852H687.358V63.58H690.31V70.852ZM714.386 77.836H700.04V74.11L712.712 56.416H719.21V74.236H723.728V77.836H719.21V85H714.386V77.836ZM714.386 74.236V62.428L715.358 59.8L715.196 59.638L704.954 74.236H714.386ZM751.957 85.288C748.057 85.288 745.123 84.616 743.155 83.272C741.199 81.928 740.221 79.402 740.221 75.694H745.063C745.063 78.178 745.645 79.78 746.809 80.5C747.985 81.22 749.707 81.58 751.975 81.58C754.243 81.58 755.941 81.238 757.069 80.554C758.209 79.87 758.779 78.556 758.779 76.612C758.779 75.124 758.209 74.092 757.069 73.516C755.941 72.94 753.883 72.634 750.895 72.598V69.088C753.895 69.016 755.959 68.656 757.087 68.008C758.215 67.36 758.779 66.316 758.779 64.876C758.779 63.052 758.203 61.804 757.051 61.132C755.899 60.448 754.207 60.106 751.975 60.106C749.779 60.106 748.075 60.484 746.863 61.24C745.663 61.996 745.063 63.724 745.063 66.424H740.221C740.221 62.62 741.223 60.004 743.227 58.576C745.243 57.136 748.153 56.416 751.957 56.416C755.953 56.416 758.893 57.046 760.777 58.306C762.661 59.554 763.603 61.558 763.603 64.318C763.603 64.342 763.603 64.36 763.603 64.372C763.603 66.616 762.889 68.224 761.461 69.196C760.165 70.072 758.377 70.546 756.097 70.618V70.96C756.229 70.96 756.361 70.96 756.493 70.96C758.773 70.96 760.525 71.362 761.749 72.166C762.985 72.958 763.603 74.5 763.603 76.792C763.603 79.792 762.667 81.958 760.795 83.29C758.935 84.622 755.989 85.288 751.957 85.288ZM766.584 81.454C766.584 79.102 767.37 77.14 768.942 75.568C770.526 73.996 773.034 72.592 776.466 71.356C779.634 70.216 781.752 69.202 782.82 68.314C783.9 67.414 784.44 66.166 784.44 64.57C784.44 63.07 783.9 61.972 782.82 61.276C781.752 60.568 780.222 60.214 778.23 60.214C776.094 60.214 774.414 60.682 773.19 61.618C771.966 62.554 771.354 64.096 771.354 66.244H766.494C766.494 62.98 767.514 60.526 769.554 58.882C771.594 57.238 774.504 56.416 778.284 56.416C782.04 56.416 784.818 57.154 786.618 58.63C788.418 60.094 789.318 62.014 789.318 64.39C789.318 67.066 788.454 69.142 786.726 70.618C785.01 72.094 782.772 73.372 780.012 74.452C777.096 75.616 774.978 76.69 773.658 77.674C772.338 78.658 771.678 79.81 771.678 81.13H789.282V85H766.584V81.454ZM803.198 85.288C799.442 85.288 796.634 84.16 794.774 81.904C792.926 79.636 792.002 76.846 792.002 73.534V68.134C792.002 64.822 792.926 62.044 794.774 59.8C796.634 57.544 799.436 56.416 803.18 56.416C806.924 56.416 809.72 57.544 811.568 59.8C813.428 62.044 814.358 64.822 814.358 68.134V73.534C814.358 76.846 813.434 79.636 811.586 81.904C809.738 84.16 806.942 85.288 803.198 85.288ZM803.198 81.49C805.322 81.49 806.9 80.68 807.932 79.06C808.976 77.44 809.498 75.658 809.498 73.714V67.954C809.498 65.998 808.982 64.222 807.95 62.626C806.918 61.018 805.328 60.214 803.18 60.214C800.996 60.214 799.394 61.012 798.374 62.608C797.354 64.204 796.844 65.986 796.844 67.954V73.714C796.844 75.67 797.36 77.458 798.392 79.078C799.424 80.686 801.026 81.49 803.198 81.49ZM824.932 83.344C823.54 83.296 822.22 83.164 820.972 82.948C819.748 82.732 818.716 82.432 817.876 82.048V78.52C818.74 78.928 819.82 79.3 821.116 79.636C822.436 79.948 823.708 80.116 824.932 80.14V73.408C823.684 73.024 822.604 72.616 821.692 72.184C820.804 71.752 820.072 71.284 819.496 70.78C818.944 70.252 818.524 69.652 818.236 68.98C817.972 68.308 817.84 67.54 817.84 66.676C817.84 65.5 818.128 64.492 818.704 63.652C819.304 62.788 820.132 62.104 821.188 61.6C822.268 61.096 823.516 60.796 824.932 60.7V57.676H827.272V60.664C828.568 60.688 829.756 60.832 830.836 61.096C831.916 61.336 832.936 61.66 833.896 62.068L832.708 65.164C831.892 64.828 831.004 64.552 830.044 64.336C829.108 64.096 828.184 63.94 827.272 63.868V70.492C828.76 70.972 830.044 71.476 831.124 72.004C832.228 72.532 833.08 73.192 833.68 73.984C834.28 74.752 834.58 75.772 834.58 77.044C834.58 78.748 833.944 80.14 832.672 81.22C831.424 82.3 829.624 82.96 827.272 83.2V87.088H824.932V83.344ZM827.272 79.996C828.52 79.852 829.42 79.552 829.972 79.096C830.548 78.616 830.836 78.004 830.836 77.26C830.836 76.756 830.716 76.324 830.476 75.964C830.26 75.604 829.888 75.292 829.36 75.028C828.856 74.764 828.16 74.5 827.272 74.236V79.996ZM824.932 63.94C824.188 63.988 823.564 64.132 823.06 64.372C822.58 64.588 822.208 64.876 821.944 65.236C821.704 65.596 821.584 66.016 821.584 66.496C821.584 67.024 821.692 67.492 821.908 67.9C822.124 68.284 822.472 68.62 822.952 68.908C823.432 69.172 824.092 69.424 824.932 69.664V63.94Z" fill="white"/>
<path d="M714.489 122.79C714.489 121.763 714.262 121.033 713.809 120.6C713.362 120.167 712.452 119.95 711.079 119.95C709.672 119.95 708.652 120.273 708.019 120.92C707.486 121.46 707.176 122.127 707.089 122.92V130H704.389V118.11H707.089V119.54C707.089 119.6 707.079 119.65 707.059 119.69L706.559 120.41L706.629 120.61C706.862 120.223 707.169 119.85 707.549 119.49C708.516 118.59 709.999 118.14 711.999 118.14C713.939 118.14 715.289 118.49 716.049 119.19C716.809 119.883 717.189 121.083 717.189 122.79H714.489ZM733.142 125.9C732.995 126.98 732.622 127.83 732.022 128.45C731.428 129.063 730.712 129.497 729.872 129.75C729.025 129.997 727.718 130.12 725.952 130.12C723.072 130.12 721.118 129.647 720.092 128.7C719.065 127.747 718.552 126.22 718.552 124.12C718.552 122.02 719.075 120.497 720.122 119.55C721.175 118.603 723.092 118.13 725.872 118.13C728.685 118.13 730.602 118.613 731.622 119.58C732.642 120.54 733.152 121.993 733.152 123.94L733.132 124.63H721.132C721.205 126.017 721.545 126.983 722.152 127.53C722.852 128.157 724.118 128.47 725.952 128.47C727.072 128.47 727.875 128.393 728.362 128.24C728.848 128.08 729.282 127.813 729.662 127.44C730.048 127.06 730.318 126.547 730.472 125.9H733.142ZM730.482 123.21C730.462 122.017 730.115 121.147 729.442 120.6C728.768 120.047 727.582 119.77 725.882 119.77C724.135 119.77 722.902 120.073 722.182 120.68C721.588 121.187 721.242 122.03 721.142 123.21H730.482ZM745.424 118.22H748.254L742.874 130H739.184L733.794 118.22H736.634L740.824 127.91C740.851 127.977 740.874 128.05 740.894 128.13C740.921 128.203 740.941 128.273 740.954 128.34L740.964 128.74H741.094L741.104 128.33C741.138 128.19 741.181 128.05 741.234 127.91L745.424 118.22ZM763.337 125.9C763.19 126.98 762.817 127.83 762.217 128.45C761.624 129.063 760.907 129.497 760.067 129.75C759.22 129.997 757.914 130.12 756.147 130.12C753.267 130.12 751.314 129.647 750.287 128.7C749.26 127.747 748.747 126.22 748.747 124.12C748.747 122.02 749.27 120.497 750.317 119.55C751.37 118.603 753.287 118.13 756.067 118.13C758.88 118.13 760.797 118.613 761.817 119.58C762.837 120.54 763.347 121.993 763.347 123.94L763.327 124.63H751.327C751.4 126.017 751.74 126.983 752.347 127.53C753.047 128.157 754.314 128.47 756.147 128.47C757.267 128.47 758.07 128.393 758.557 128.24C759.044 128.08 759.477 127.813 759.857 127.44C760.244 127.06 760.514 126.547 760.667 125.9H763.337ZM760.677 123.21C760.657 122.017 760.31 121.147 759.637 120.6C758.964 120.047 757.777 119.77 756.077 119.77C754.33 119.77 753.097 120.073 752.377 120.68C751.784 121.187 751.437 122.03 751.337 123.21H760.677ZM776.004 123.82C776.004 122.367 775.754 121.353 775.254 120.78C774.761 120.207 773.801 119.92 772.374 119.92C770.908 119.92 769.811 120.283 769.084 121.01C768.604 121.483 768.284 122.07 768.124 122.77V130H765.424V118.23H768.124V119.72C768.124 119.78 768.114 119.83 768.094 119.87L767.684 120.55C767.884 120.29 768.118 120.027 768.384 119.76C769.458 118.66 771.044 118.11 773.144 118.11C773.211 118.11 773.274 118.11 773.334 118.11C775.314 118.143 776.701 118.617 777.494 119.53C778.294 120.443 778.694 121.823 778.694 123.67V130H776.004V123.82ZM783.356 124.41C783.356 125.857 783.593 126.867 784.066 127.44C784.539 128.013 785.499 128.3 786.946 128.3C788.459 128.3 789.573 127.95 790.286 127.25C790.899 126.657 791.249 125.87 791.336 124.89V118.24H794.036V130H791.396V128.5C791.396 128.46 791.409 128.413 791.436 128.36L791.986 127.41L791.966 127.4C791.746 127.747 791.469 128.1 791.136 128.46C790.116 129.56 788.423 130.11 786.056 130.11C784.009 130.11 782.599 129.65 781.826 128.73C781.053 127.81 780.666 126.427 780.666 124.58V118.22H783.356V124.41ZM810.564 125.9C810.417 126.98 810.044 127.83 809.444 128.45C808.85 129.063 808.134 129.497 807.294 129.75C806.447 129.997 805.14 130.12 803.374 130.12C800.494 130.12 798.54 129.647 797.514 128.7C796.487 127.747 795.974 126.22 795.974 124.12C795.974 122.02 796.497 120.497 797.544 119.55C798.597 118.603 800.514 118.13 803.294 118.13C806.107 118.13 808.024 118.613 809.044 119.58C810.064 120.54 810.574 121.993 810.574 123.94L810.554 124.63H798.554C798.627 126.017 798.967 126.983 799.574 127.53C800.274 128.157 801.54 128.47 803.374 128.47C804.494 128.47 805.297 128.393 805.784 128.24C806.27 128.08 806.704 127.813 807.084 127.44C807.47 127.06 807.74 126.547 807.894 125.9H810.564ZM807.904 123.21C807.884 122.017 807.537 121.147 806.864 120.6C806.19 120.047 805.004 119.77 803.304 119.77C801.557 119.77 800.324 120.073 799.604 120.68C799.01 121.187 798.664 122.03 798.564 123.21H807.904Z" fill="white"/>
</svg>
